0
SECTION
2
HEADER
9
$INSUNITS
70
1
9
$ACADVER
1
AC1014
9
$HANDSEED
5
FFFF
0
ENDSEC
0
SECTION
2
TABLES
0
TABLE
2
VPORT
5
8
100
AcDbSymbolTable
0
ENDTAB
0
TABLE
2
LTYPE
5
5
100
AcDbSymbolTable
0
LTYPE
5
14
100
AcDbSymbolTableRecord
100
AcDbLinetypeTableRecord
2
BYBLOCK
70
0
0
LTYPE
5
15
100
AcDbSymbolTableRecord
100
AcDbLinetypeTableRecord
2
BYLAYER
70
0
0
LTYPE
5
16
100
AcDbSymbolTableRecord
100
AcDbLinetypeTableRecord
2
DASHED
70
0
3
Dashed __ __ __ __ __ __ __ __ __ __ __ __ __ _
72
65
73
2
40
0.75
49
0.5
74
0
49
-0.25
74
0
0
ENDTAB
0
TABLE
2
LAYER
5
2
100
AcDbSymbolTable
70
2
0
LAYER
5
50
100
AcDbSymbolTableRecord
100
AcDbLayerTableRecord
2
0
70
0
62
7
6
CONTINUOUS
0
ENDTAB
0
TABLE
2
STYLE
5
3
100
AcDbSymbolTable
70
1
0
STYLE
5
11
100
AcDbSymbolTableRecord
100
AcDbTextStyleTableRecord
2
STANDARD
70
0
0
ENDTAB
0
TABLE
2
VIEW
5
6
100
AcDbSymbolTable
70
0
0
ENDTAB
0
TABLE
2
UCS
5
7
100
AcDbSymbolTable
70
0
0
ENDTAB
0
TABLE
2
APPID
5
9
100
AcDbSymbolTable
70
2
0
APPID
5
12
100
AcDbSymbolTableRecord
100
AcDbRegAppTableRecord
2
ACAD
70
0
0
ENDTAB
0
TABLE
2
DIMSTYLE
5
A
100
AcDbSymbolTable
70
1
0
ENDTAB
0
TABLE
2
BLOCK_RECORD
5
1
100
AcDbSymbolTable
70
1
0
BLOCK_RECORD
5
1F
100
AcDbSymbolTableRecord
100
AcDbBlockTableRecord
2
*MODEL_SPACE
0
BLOCK_RECORD
5
1B
100
AcDbSymbolTableRecord
100
AcDbBlockTableRecord
2
*PAPER_SPACE
0
ENDTAB
0
ENDSEC
0
SECTION
2
BLOCKS
0
BLOCK
5
20
100
AcDbEntity
100
AcDbBlockBegin
2
*MODEL_SPACE
0
ENDBLK
5
21
100
AcDbEntity
100
AcDbBlockEnd
0
BLOCK
5
1C
100
AcDbEntity
100
AcDbBlockBegin
2
*PAPER_SPACE
0
ENDBLK
5
1D
100
AcDbEntity
100
AcDbBlockEnd
0
ENDSEC
0
SECTION
2
ENTITIES
0
LWPOLYLINE
5
100
100
AcDbEntity
8
0
100
AcDbPolyline
90
28
70
1
43
0.0
10
-18.076771413247414
20
-7.1234530780393159
10
-18.076771413247414
20
-8.3129918856883602
10
-16.742125743956077
20
-8.3129918856883602
10
-16.742125743956077
20
-8.4429131455308788
10
-12.73818873608206
20
-8.4429131455308806
10
-12.73818873608206
20
-8.3129918856883602
10
-11.403543066790723
20
-8.312991885688362
10
-11.403543066790721
20
-7.1234530780393168
10
-11.273621806948201
20
-7.1234530780393168
10
-11.273621806948201
20
-4.7443754627412309
10
-11.403543066790721
20
-4.7443754627412309
10
-11.403543066790721
20
-3.5548366550921848
10
-11.273621806948201
20
-3.5548366550921848
10
-11.273621806948203
20
-1.1757590397940987
10
-11.403543066790721
20
-1.1757590397940989
10
-11.403543066790721
20
0.013779767854944397
10
-12.738188736082053
20
0.013779767854942429
10
-12.738188736082053
20
0.14370102769746143
10
-16.74212574395607
20
0.14370102769746512
10
-16.742125743956073
20
0.013779767854946123
10
-18.076771413247414
20
0.013779767854945888
10
-18.076771413247414
20
-1.1757590397940971
10
-18.206692673089933
20
-1.1757590397940971
10
-18.206692673089933
20
-3.5548366550921835
10
-18.076771413247414
20
-3.5548366550921835
10
-18.076771413247414
20
-4.7443754627412291
10
-18.206692673089933
20
-4.7443754627412291
10
-18.206692673089933
20
-7.1234530780393159
0
LWPOLYLINE
5
101
100
AcDbEntity
8
0
100
AcDbPolyline
90
28
70
1
43
0.0
10
-20.196456668883798
20
0.0059058722548606746
10
-20.472047220064901
20
0.0059058722548606868
10
-20.472047220064901
20
-8.320865781288445
10
-20.196456668883798
20
-8.320865781288445
10
-20.196456668883798
20
-8.4586610568789968
10
-19.645275566521594
20
-8.4586610568789968
10
-19.645275566521594
20
-8.320865781288445
10
-19.36968501534049
20
-8.320865781288445
10
-19.36968501534049
20
-8.4586610568789968
10
-18.818503912978287
20
-8.4586610568789968
10
-18.818503912978287
20
-8.320865781288445
10
-18.306692889356242
20
-8.320865781288445
10
-18.306692889356242
20
-7.1313269736394016
10
-18.542913361797183
20
-7.1313269736394016
10
-18.542913361797183
20
-4.7522493583413157
10
-18.306692889356238
20
-4.7522493583413157
10
-18.306692889356238
20
-3.5627105506922692
10
-18.542913361797183
20
-3.5627105506922692
10
-18.542913361797183
20
-1.183632935394183
10
-18.306692889356238
20
-1.1836329353941832
10
-18.306692889356238
20
0.0059058722548603034
10
-18.818503912978287
20
0.0059058722548603676
10
-18.818503912978287
20
0.14370114784541149
10
-19.36968501534049
20
0.1437011478454116
10
-19.36968501534049
20
0.0059058722548604994
10
-19.645275566521594
20
0.0059058722548605558
10
-19.645275566521594
20
0.14370114784541169
10
-20.196456668883798
20
0.1437011478454118
0
LWPOLYLINE
5
102
100
AcDbEntity
8
0
100
AcDbPolyline
90
28
70
1
43
0.0
10
-20.47204661932517
20
-17.023228923166826
10
-20.196456068144066
20
-17.023228923166826
10
-20.196456068144066
20
-17.161024198757381
10
-19.645274965781862
20
-17.161024198757381
10
-19.645274965781862
20
-17.023228923166826
10
-19.369684414600759
20
-17.023228923166826
10
-19.369684414600759
20
-17.161024198757381
10
-18.818503312238555
20
-17.161024198757381
10
-18.818503312238555
20
-17.023228923166826
10
-18.30669228861651
20
-17.023228923166826
10
-18.30669228861651
20
-15.833690115517786
10
-18.542912761057455
20
-15.833690115517786
10
-18.542912761057455
20
-13.454612500219701
10
-18.306692288616507
20
-13.454612500219701
10
-18.30669228861651
20
-12.265073692570654
10
-18.542912761057451
20
-12.265073692570654
10
-18.542912761057451
20
-9.8859960772725692
10
-18.306692288616507
20
-9.8859960772725692
10
-18.306692288616507
20
-8.6964572696235241
10
-18.818503312238551
20
-8.6964572696235241
10
-18.818503312238555
20
-8.5586619940329722
10
-19.369684414600759
20
-8.5586619940329722
10
-19.369684414600759
20
-8.6964572696235241
10
-19.645274965781862
20
-8.6964572696235241
10
-19.645274965781859
20
-8.5586619940329722
10
-20.196456068144062
20
-8.5586619940329722
10
-20.196456068144066
20
-8.6964572696235241
10
-20.47204661932517
20
-8.6964572696235241
0
LWPOLYLINE
5
103
100
AcDbEntity
8
0
100
AcDbPolyline
90
24
70
1
43
0.0
10
-18.580708541269377
20
-18.292519636980192
10
-18.718503816859929
20
-18.292519636980192
10
-18.718503816859929
20
-18.568110188161295
10
-18.580708541269377
20
-18.568110188161295
10
-18.580708541269377
20
-19.119291290523499
10
-18.718503816859929
20
-19.119291290523499
10
-18.718503816859929
20
-19.394881841704603
10
-11.769684919222131
20
-19.394881841704603
10
-11.769684919222131
20
-19.119291290523499
10
-11.907480194812683
20
-19.119291290523499
10
-11.907480194812683
20
-18.568110188161295
10
-11.769684919222131
20
-18.568110188161295
10
-11.769684919222131
20
-18.292519636980192
10
-11.907480194812683
20
-18.292519636980192
10
-11.907480194812683
20
-17.741338534617988
10
-11.769684919222131
20
-17.741338534617988
10
-11.769684919222131
20
-17.22952751099594
10
-13.242125864104022
20
-17.22952751099594
10
-13.242125864104022
20
-17.465747983436888
10
-17.246062871978037
20
-17.465747983436888
10
-17.246062871978037
20
-17.22952751099594
10
-18.718503816859929
20
-17.22952751099594
10
-18.718503816859929
20
-17.741338534617988
10
-18.580708541269377
20
-17.741338534617988
0
LWPOLYLINE
5
104
100
AcDbEntity
8
0
100
AcDbPolyline
90
24
70
1
43
0.0
10
-11.27362168680026
20
-20.557871901144193
10
-11.411416962390808
20
-20.557871901144193
10
-11.411416962390808
20
-20.006690798781985
10
-11.27362168680026
20
-20.006690798781985
10
-11.27362168680026
20
-19.494879775159941
10
-12.74606263168215
20
-19.494879775159941
10
-12.74606263168215
20
-19.731100247600885
10
-16.749999639556165
20
-19.731100247600885
10
-16.749999639556165
20
-19.494879775159937
10
-18.222440584438058
20
-19.494879775159941
10
-18.222440584438058
20
-20.006690798781985
10
-18.084645308847506
20
-20.006690798781985
10
-18.084645308847506
20
-20.557871901144193
10
-18.222440584438058
20
-20.557871901144193
10
-18.222440584438058
20
-20.833462452325293
10
-18.084645308847506
20
-20.833462452325293
10
-18.084645308847506
20
-21.3846435546875
10
-18.222440584438058
20
-21.3846435546875
10
-18.222440584438058
20
-21.660234105868604
10
-11.27362168680026
20
-21.660234105868604
10
-11.27362168680026
20
-21.3846435546875
10
-11.411416962390808
20
-21.3846435546875
10
-11.411416962390808
20
-20.833462452325293
10
-11.27362168680026
20
-20.833462452325293
0
LWPOLYLINE
5
105
100
AcDbEntity
8
0
100
AcDbPolyline
90
8
70
1
43
0.0
10
-14.655511570727731
20
-13.505511546698143
42
0.41421356237308382
10
-14.582676925058438
20
-13.578346192367439
10
-13.244094247893084
20
-13.578346192367436
42
0.41421356237309509
10
-13.171259602223792
20
-13.505511546698143
10
-13.171259602223792
20
-12.166928869532789
42
0.41421356237309509
10
-13.244094247893084
20
-12.094094223863497
10
-14.582676925058438
20
-12.094094223863497
42
0.41421356237310059
10
-14.655511570727731
20
-12.166928869532789
0
LWPOLYLINE
5
106
100
AcDbEntity
8
0
100
AcDbPolyline
90
8
70
1
43
0.0
10
-14.655511570727731
20
-15.159054853784758
42
0.41421356237308382
10
-14.582676925058438
20
-15.231889499454054
10
-13.244094247893084
20
-15.23188949945405
42
0.41421356237310625
10
-13.171259602223792
20
-15.159054853784756
10
-13.171259602223792
20
-13.820472176619402
42
0.41421356237309509
10
-13.244094247893084
20
-13.74763753095011
10
-14.582676925058438
20
-13.74763753095011
42
0.41421356237309509
10
-14.655511570727731
20
-13.820472176619404
0
LWPOLYLINE
5
107
100
AcDbEntity
8
0
100
AcDbPolyline
90
8
70
1
43
0.0
10
-11.517716295137179
20
-8.8598422553595615
42
0.41421356237307816
10
-11.59055094080647
20
-8.7870076096902689
10
-12.929133617971823
20
-8.7870076096902707
42
0.41421356237308943
10
-13.001968263641116
20
-8.8598422553595597
10
-13.001968263641116
20
-10.198424932524915
42
0.41421356237309509
10
-12.929133617971823
20
-10.271259578194206
10
-11.59055094080647
20
-10.271259578194208
42
0.41421356237309509
10
-11.517716295137177
20
-10.198424932524915
0
LWPOLYLINE
5
108
100
AcDbEntity
8
0
100
AcDbPolyline
90
8
70
1
43
0.0
10
-13.001968263641116
20
-11.851968239611528
42
0.41421356237308382
10
-12.929133617971823
20
-11.924802885280823
10
-11.59055094080647
20
-11.924802885280821
42
0.41421356237312312
10
-11.517716295137179
20
-11.851968239611528
10
-11.517716295137179
20
-10.513385562446175
42
0.41421356237307255
10
-11.59055094080647
20
-10.440550916776884
10
-12.929133617971823
20
-10.440550916776884
42
0.41421356237310059
10
-13.001968263641116
20
-10.513385562446175
0
LWPOLYLINE
5
109
100
AcDbEntity
8
0
100
AcDbPolyline
90
8
70
1
43
0.0
10
-13.001968263641118
20
-16.812598160871374
42
0.41421356237309509
10
-12.929133617971825
20
-16.885432806540667
10
-11.590550940806471
20
-16.885432806540667
42
0.41421356237310625
10
-11.517716295137181
20
-16.812598160871374
10
-11.517716295137181
20
-15.474015483706017
42
0.41421356237311185
10
-11.590550940806471
20
-15.401180838036725
10
-12.929133617971825
20
-15.401180838036725
42
0.41421356237309509
10
-13.001968263641118
20
-15.474015483706017
0
LWPOLYLINE
5
110
100
AcDbEntity
8
0
100
AcDbPolyline
90
8
70
1
43
0.0
10
-16.309054877814347
20
-15.159054853784756
42
0.41421356237307255
10
-16.236220232145055
20
-15.231889499454049
10
-14.897637554979699
20
-15.231889499454049
42
0.41421356237308382
10
-14.824802909310407
20
-15.159054853784756
10
-14.824802909310407
20
-13.820472176619402
42
0.41421356237309509
10
-14.897637554979699
20
-13.74763753095011
10
-16.236220232145055
20
-13.74763753095011
42
0.41421356237308382
10
-16.309054877814347
20
-13.820472176619402
0
LWPOLYLINE
5
111
100
AcDbEntity
8
0
100
AcDbPolyline
90
8
70
1
43
0.0
10
-13.001968263641118
20
-13.505511546698143
42
0.41421356237309509
10
-12.929133617971825
20
-13.578346192367436
10
-11.590550940806471
20
-13.578346192367436
42
0.41421356237310625
10
-11.517716295137181
20
-13.505511546698143
10
-11.517716295137181
20
-12.166928869532789
42
0.41421356237307255
10
-11.59055094080647
20
-12.094094223863499
10
-12.929133617971823
20
-12.094094223863497
42
0.41421356237308382
10
-13.001968263641116
20
-12.166928869532789
0
LWPOLYLINE
5
112
100
AcDbEntity
8
0
100
AcDbPolyline
90
8
70
1
43
0.0
10
-14.655511570727731
20
-11.851968239611528
42
0.41421356237308382
10
-14.582676925058438
20
-11.924802885280823
10
-13.244094247893084
20
-11.924802885280819
42
0.41421356237311185
10
-13.171259602223792
20
-11.851968239611528
10
-13.171259602223792
20
-10.513385562446175
42
0.41421356237309509
10
-13.244094247893084
20
-10.440550916776882
10
-14.582676925058438
20
-10.440550916776884
42
0.41421356237310059
10
-14.655511570727731
20
-10.513385562446175
0
LWPOLYLINE
5
113
100
AcDbEntity
8
0
100
AcDbPolyline
90
8
70
1
43
0.0
10
-14.824802909310405
20
-10.513385562446175
42
0.41421356237310059
10
-14.897637554979697
20
-10.44055091677688
10
-16.236220232145051
20
-10.440550916776884
42
0.41421356237311185
10
-16.309054877814344
20
-10.513385562446175
10
-16.309054877814347
20
-11.851968239611528
42
0.41421356237309509
10
-16.236220232145051
20
-11.924802885280821
10
-14.897637554979697
20
-11.924802885280819
42
0.41421356237310059
10
-14.824802909310407
20
-11.851968239611528
0
LWPOLYLINE
5
114
100
AcDbEntity
8
0
100
AcDbPolyline
90
8
70
1
43
0.0
10
-13.001968263641118
20
-15.159054853784758
42
0.41421356237309509
10
-12.929133617971825
20
-15.23188949945405
10
-11.590550940806471
20
-15.23188949945405
42
0.41421356237310625
10
-11.517716295137179
20
-15.159054853784756
10
-11.517716295137181
20
-13.820472176619402
42
0.41421356237311185
10
-11.590550940806471
20
-13.747637530950113
10
-12.929133617971825
20
-13.74763753095011
42
0.41421356237310625
10
-13.001968263641116
20
-13.820472176619404
0
LWPOLYLINE
5
115
100
AcDbEntity
8
0
100
AcDbPolyline
90
8
70
1
43
0.0
10
-16.309054877814347
20
-13.505511546698143
42
0.41421356237308382
10
-16.236220232145055
20
-13.578346192367439
10
-14.897637554979699
20
-13.578346192367436
42
0.41421356237309509
10
-14.824802909310407
20
-13.505511546698143
10
-14.824802909310405
20
-12.166928869532788
42
0.41421356237310625
10
-14.897637554979699
20
-12.094094223863497
10
-16.236220232145055
20
-12.094094223863497
42
0.41421356237310059
10
-16.309054877814344
20
-12.166928869532789
0
LWPOLYLINE
5
116
100
AcDbEntity
8
0
100
AcDbPolyline
90
8
70
1
43
0.0
10
-13.171259602223792
20
-8.8598422553595615
42
0.41421356237310625
10
-13.244094247893084
20
-8.7870076096902707
10
-14.582676925058438
20
-8.7870076096902707
42
0.41421356237308943
10
-14.655511570727727
20
-8.8598422553595597
10
-14.655511570727731
20
-10.198424932524915
42
0.41421356237309509
10
-14.582676925058438
20
-10.271259578194206
10
-13.244094247893084
20
-10.271259578194206
42
0.41421356237310059
10
-13.171259602223792
20
-10.198424932524915
0
LWPOLYLINE
5
117
100
AcDbEntity
8
0
100
AcDbPolyline
90
8
70
1
43
0.0
10
-16.309054877814347
20
-16.812598160871371
42
0.41421356237307255
10
-16.236220232145055
20
-16.885432806540663
10
-14.897637554979699
20
-16.88543280654066
42
0.41421356237306128
10
-14.824802909310407
20
-16.812598160871374
10
-14.824802909310407
20
-15.474015483706017
42
0.41421356237309509
10
-14.897637554979699
20
-15.401180838036725
10
-16.236220232145055
20
-15.401180838036725
42
0.41421356237307255
10
-16.309054877814347
20
-15.474015483706017
0
LWPOLYLINE
5
118
100
AcDbEntity
8
0
100
AcDbPolyline
90
8
70
1
43
0.0
10
-14.655511570727732
20
-16.812598160871374
42
0.41421356237309509
10
-14.582676925058442
20
-16.885432806540667
10
-13.244094247893084
20
-16.885432806540667
42
0.41421356237309509
10
-13.171259602223792
20
-16.812598160871374
10
-13.171259602223792
20
-15.474015483706017
42
0.41421356237309509
10
-13.244094247893084
20
-15.401180838036725
10
-14.582676925058438
20
-15.401180838036725
42
0.41421356237307255
10
-14.655511570727731
20
-15.474015483706017
0
LWPOLYLINE
5
119
100
AcDbEntity
8
0
100
AcDbPolyline
90
8
70
1
43
0.0
10
-14.824802909310405
20
-8.8598422553595615
42
0.41421356237309509
10
-14.897637554979697
20
-8.7870076096902689
10
-16.236220232145051
20
-8.7870076096902689
42
0.41421356237311185
10
-16.309054877814344
20
-8.8598422553595597
10
-16.309054877814344
20
-10.198424932524915
42
0.41421356237310625
10
-16.236220232145051
20
-10.271259578194206
10
-14.897637554979697
20
-10.271259578194206
42
0.41421356237308943
10
-14.824802909310407
20
-10.198424932524915
0
LWPOLYLINE
5
120
100
AcDbEntity
8
0
100
AcDbPolyline
90
8
70
1
43
0.0
10
-16.478346216397021
20
-10.513385562446175
42
0.41421356237310059
10
-16.55118086206631
20
-10.44055091677688
10
-17.889763539231666
20
-10.440550916776882
42
0.41421356237311185
10
-17.962598184900958
20
-10.513385562446175
10
-17.962598184900958
20
-11.851968239611528
42
0.41421356237311185
10
-17.889763539231666
20
-11.924802885280819
10
-16.55118086206631
20
-11.924802885280819
42
0.41421356237310059
10
-16.478346216397021
20
-11.851968239611528
0
LWPOLYLINE
5
121
100
AcDbEntity
8
0
100
AcDbPolyline
90
8
70
1
43
0.0
10
-17.889763539231669
20
-15.401180838036725
42
0.41421356237307255
10
-17.962598184900955
20
-15.474015483706017
10
-17.962598184900962
20
-16.812598160871371
42
0.41421356237308382
10
-17.889763539231666
20
-16.88543280654066
10
-16.55118086206631
20
-16.88543280654066
42
0.41421356237310625
10
-16.478346216397021
20
-16.812598160871374
10
-16.478346216397021
20
-15.474015483706017
42
0.41421356237309509
10
-16.551180862066314
20
-15.401180838036725
0
LWPOLYLINE
5
122
100
AcDbEntity
8
0
100
AcDbPolyline
90
8
70
1
43
0.0
10
-16.478346216397021
20
-12.166928869532788
42
0.41421356237310059
10
-16.55118086206631
20
-12.094094223863493
10
-17.889763539231666
20
-12.094094223863495
42
0.41421356237310625
10
-17.962598184900958
20
-12.166928869532789
10
-17.962598184900958
20
-13.505511546698143
42
0.41421356237309509
10
-17.889763539231666
20
-13.578346192367432
10
-16.55118086206631
20
-13.578346192367436
42
0.41421356237309509
10
-16.478346216397021
20
-13.505511546698141
0
LWPOLYLINE
5
123
100
AcDbEntity
8
0
100
AcDbPolyline
90
8
70
1
43
0.0
10
-17.889763539231666
20
-8.7870076096902689
42
0.41421356237311185
10
-17.962598184900958
20
-8.8598422553595597
10
-17.962598184900958
20
-10.198424932524913
42
0.41421356237311185
10
-17.889763539231666
20
-10.271259578194206
10
-16.55118086206631
20
-10.271259578194206
42
0.41421356237310059
10
-16.478346216397021
20
-10.198424932524913
10
-16.478346216397021
20
-8.8598422553595597
42
0.41421356237310059
10
-16.55118086206631
20
-8.7870076096902689
0
LWPOLYLINE
5
124
100
AcDbEntity
8
0
100
AcDbPolyline
90
8
70
1
43
0.0
10
-16.478346216397021
20
-13.820472176619402
42
0.41421356237308382
10
-16.55118086206631
20
-13.747637530950106
10
-17.889763539231666
20
-13.74763753095011
42
0.41421356237309509
10
-17.962598184900958
20
-13.820472176619402
10
-17.962598184900962
20
-15.159054853784756
42
0.41421356237308382
10
-17.889763539231666
20
-15.231889499454045
10
-16.55118086206631
20
-15.231889499454045
42
0.41421356237311752
10
-16.478346216397021
20
-15.159054853784756
0
LWPOLYLINE
5
125
100
AcDbEntity
8
0
100
AcDbPolyline
90
28
70
1
43
0.0
10
-18.076771413247414
20
-8.6728343813438116
10
-18.076771413247414
20
-9.8623731889928532
10
-18.206692673089933
20
-9.862373188992855
10
-18.206692673089933
20
-12.24145080429094
10
-18.076771413247414
20
-12.24145080429094
10
-18.076771413247414
20
-13.430989611939987
10
-18.206692673089933
20
-13.430989611939987
10
-18.206692673089933
20
-15.810067227238072
10
-18.076771413247418
20
-15.810067227238072
10
-18.076771413247414
20
-16.999606034887115
10
-16.742125743956077
20
-16.999606034887115
10
-16.742125743956077
20
-17.129527294729634
10
-12.73818873608206
20
-17.129527294729634
10
-12.73818873608206
20
-16.999606034887119
10
-11.403543066790723
20
-16.999606034887123
10
-11.403543066790721
20
-15.810067227238076
10
-11.273621806948201
20
-15.810067227238076
10
-11.273621806948201
20
-13.430989611939991
10
-11.403543066790721
20
-13.430989611939987
10
-11.403543066790721
20
-12.24145080429094
10
-11.273621806948201
20
-12.241450804290942
10
-11.273621806948203
20
-9.862373188992855
10
-11.403543066790721
20
-9.8623731889928568
10
-11.403543066790721
20
-8.6728343813438133
10
-12.738188736082053
20
-8.6728343813438151
10
-12.738188736082053
20
-8.5429131215012966
10
-16.74212574395607
20
-8.5429131215012912
10
-16.742125743956073
20
-8.6728343813438116
0
ENDSEC
0
SECTION
2
OBJECTS
0
DICTIONARY
5
C
100
AcDbDictionary
3
ACAD_GROUP
350
D
3
ACAD_MLINESTYLE
350
17
0
DICTIONARY
5
D
100
AcDbDictionary
0
DICTIONARY
5
1A
330
C
100
AcDbDictionary
0
DICTIONARY
5
17
100
AcDbDictionary
0
ENDSEC
0
EOF
